<svg width="367" height="367" viewBox="0 0 367 367" fill="none" xmlns="http://www.w3.org/2000/svg">
<circle cx="183.5" cy="183.5" r="183.5" fill="url(#paint0_linear)"/>
<path d="M113.272 202.039V139.777C113.272 139.777 126.138 139.777 151.871 139.777C158.108 139.777 163.453 142.843 167.908 148.975C172.415 155.055 174.669 162.366 174.669 170.908C174.669 179.503 172.415 186.84 167.908 192.92C163.453 198.999 158.108 202.039 151.871 202.039H113.272ZM118.932 196.379H151.871C156.535 196.379 160.519 193.889 163.82 188.911C167.174 183.932 168.852 177.931 168.852 170.908C168.852 163.833 167.174 157.832 163.82 152.906C160.519 147.927 156.535 145.438 151.871 145.438H118.932V196.379ZM107.612 207.699H151.871C159.68 207.699 166.388 204.109 171.996 196.929C177.656 189.697 180.486 181.023 180.486 170.908C180.486 164.252 179.176 158.094 176.556 152.434C173.988 146.774 170.502 142.319 166.1 139.07C161.75 135.768 157.007 134.117 151.871 134.117H107.612V207.699ZM101.952 213.359V128.457H151.871C158.003 128.457 163.715 130.344 169.009 134.117C174.302 137.891 178.495 143.053 181.587 149.604C184.731 156.103 186.304 163.204 186.304 170.908C186.304 178.56 184.731 185.661 181.587 192.212C178.495 198.764 174.302 203.926 169.009 207.699C163.715 211.473 158.003 213.359 151.871 213.359H101.952ZM96.2915 219.02H151.871C159.051 219.02 165.707 216.871 171.839 212.573C178.023 208.276 182.95 202.432 186.618 195.042C190.287 187.653 192.121 179.608 192.121 170.908C192.121 162.261 190.287 154.242 186.618 146.853C182.95 139.41 178.023 133.541 171.839 129.243C165.655 124.946 158.999 122.797 151.871 122.797H96.2915V219.02ZM90.6313 224.68V117.137H151.871C160.047 117.137 167.672 119.548 174.748 124.369C181.823 129.138 187.457 135.663 191.649 143.944C195.842 152.224 197.938 161.213 197.938 170.908C197.938 180.604 195.842 189.592 191.649 197.873C187.457 206.153 181.823 212.704 174.748 217.526C167.672 222.295 160.047 224.68 151.871 224.68H90.6313ZM84.9712 230.34H151.871C158.737 230.34 165.366 228.768 171.76 225.623C178.154 222.479 183.683 218.26 188.348 212.966C193.012 207.673 196.733 201.358 199.511 194.021C202.341 186.631 203.756 178.927 203.756 170.908C203.756 162.89 202.341 155.212 199.511 147.875C196.733 140.537 193.012 134.222 188.348 128.929C183.683 123.583 178.154 119.338 171.76 116.193C165.366 113.049 158.737 111.477 151.871 111.477H84.9712V230.34ZM151.871 236H79.311V105.816H151.871C162.091 105.816 171.629 108.725 180.486 114.542C189.343 120.36 196.392 128.274 201.633 138.284C206.927 148.294 209.573 159.169 209.573 170.908C209.573 179.713 208.001 188.151 204.856 196.222C201.764 204.24 197.624 211.158 192.436 216.976C187.247 222.793 181.089 227.431 173.961 230.89C166.886 234.297 159.523 236 151.871 236Z" fill="white"/>
<path d="M262.578 191.312L257.939 194.377C255.109 190.185 251.415 186.883 246.855 184.472C242.348 182.009 237.448 180.777 232.154 180.777C223.559 180.777 216.222 183.817 210.143 189.896C204.063 195.976 201.023 203.313 201.023 211.908C201.023 220.503 204.063 227.84 210.143 233.92C216.222 239.999 223.559 243.039 232.154 243.039C237.448 243.039 242.348 241.807 246.855 239.344C251.415 236.881 255.109 233.553 257.939 229.36L262.499 232.662C259.145 237.589 254.795 241.493 249.449 244.375C244.104 247.258 238.339 248.699 232.154 248.699C227.175 248.699 222.406 247.73 217.847 245.791C213.34 243.851 209.435 241.231 206.133 237.929C202.832 234.627 200.211 230.723 198.272 226.216C196.333 221.656 195.363 216.887 195.363 211.908C195.363 206.929 196.333 202.186 198.272 197.679C200.211 193.12 202.832 189.189 206.133 185.887C209.435 182.585 213.34 179.965 217.847 178.026C222.406 176.087 227.175 175.117 232.154 175.117C238.391 175.117 244.182 176.585 249.528 179.52C254.874 182.402 259.223 186.333 262.578 191.312ZM271.933 184.865L267.216 187.931C263.338 182.271 258.306 177.79 252.122 174.488C245.99 171.134 239.334 169.457 232.154 169.457C224.45 169.457 217.349 171.37 210.85 175.196C204.351 178.969 199.189 184.105 195.363 190.604C191.59 197.103 189.703 204.204 189.703 211.908C189.703 219.612 191.59 226.714 195.363 233.212C199.189 239.711 204.351 244.873 210.85 248.699C217.349 252.473 224.45 254.359 232.154 254.359C239.334 254.359 246.016 252.682 252.201 249.328C258.385 245.974 263.416 241.441 267.294 235.728L271.933 238.951C267.53 245.45 261.818 250.586 254.795 254.359C247.825 258.133 240.278 260.02 232.154 260.02C223.454 260.02 215.41 257.871 208.02 253.573C200.63 249.276 194.787 243.432 190.489 236.042C186.192 228.653 184.043 220.608 184.043 211.908C184.043 203.208 186.192 195.164 190.489 187.774C194.787 180.384 200.63 174.541 208.02 170.243C215.41 165.946 223.454 163.797 232.154 163.797C240.278 163.797 247.825 165.684 254.795 169.457C261.818 173.23 267.53 178.367 271.933 184.865ZM281.366 178.576L276.649 181.642C271.723 174.41 265.329 168.697 257.468 164.504C249.659 160.259 241.221 158.137 232.154 158.137C224.869 158.137 217.899 159.552 211.243 162.382C204.587 165.212 198.848 169.038 194.027 173.859C189.258 178.629 185.458 184.341 182.628 190.997C179.798 197.653 178.383 204.623 178.383 211.908C178.383 219.193 179.798 226.163 182.628 232.819C185.458 239.475 189.258 245.214 194.027 250.036C198.848 254.805 204.587 258.604 211.243 261.435C217.899 264.265 224.869 265.68 232.154 265.68C241.273 265.68 249.737 263.557 257.546 259.312C265.355 255.067 271.723 249.328 276.649 242.096L281.209 245.476C275.758 253.442 268.709 259.757 260.062 264.422C251.467 269.034 242.164 271.34 232.154 271.34C221.41 271.34 211.479 268.693 202.36 263.4C193.241 258.054 186.008 250.822 180.663 241.703C175.369 232.583 172.723 222.652 172.723 211.908C172.723 201.164 175.369 191.233 180.663 182.114C186.008 172.995 193.241 165.788 202.36 160.495C211.479 155.149 221.41 152.477 232.154 152.477C242.217 152.477 251.572 154.835 260.219 159.552C268.867 164.216 275.916 170.558 281.366 178.576ZM290.643 172.13L285.926 175.196C279.951 166.444 272.221 159.526 262.735 154.442C253.301 149.358 243.108 146.816 232.154 146.816C223.35 146.816 214.912 148.546 206.841 152.005C198.822 155.411 191.904 160.023 186.087 165.841C180.27 171.658 175.631 178.602 172.172 186.673C168.766 194.692 167.062 203.104 167.062 211.908C167.062 220.713 168.766 229.151 172.172 237.222C175.631 245.24 180.27 252.158 186.087 257.976C191.904 263.793 198.822 268.431 206.841 271.89C214.912 275.297 223.35 277 232.154 277C243.108 277 253.327 274.432 262.813 269.296C272.299 264.16 280.03 257.216 286.004 248.463L290.564 251.922C284.065 261.356 275.68 268.85 265.408 274.406C255.136 279.909 244.051 282.66 232.154 282.66C222.563 282.66 213.392 280.773 204.64 277C195.94 273.279 188.419 268.274 182.078 261.985C175.789 255.643 170.757 248.123 166.984 239.423C163.263 230.671 161.402 221.499 161.402 211.908C161.402 202.317 163.263 193.172 166.984 184.472C170.757 175.72 175.789 168.199 182.078 161.91C188.419 155.569 195.94 150.537 204.64 146.816C213.392 143.043 222.563 141.156 232.154 141.156C244.104 141.156 255.214 143.934 265.486 149.489C275.758 155.045 284.144 162.591 290.643 172.13Z" fill="white"/>
<defs>
<linearGradient id="paint0_linear" x1="0" y1="183.5" x2="367" y2="183.5" gradientUnits="userSpaceOnUse">
<stop stop-color="#DA22FF"/>
<stop offset="1" stop-color="#9733EE"/>
</linearGradient>
</defs>
</svg>
