<svg width="476" height="105" viewBox="0 0 476 105" fill="none" xmlns="http://www.w3.org/2000/svg">
<path d="M46.69 52.29C46.69 57.2833 45.6867 61.6467 43.68 65.38C41.6733 69.0667 38.71 71.9367 34.79 73.99C30.9167 75.9967 26.25 77 20.79 77H5.11V27.65H20.79C26.25 27.65 30.9167 28.6533 34.79 30.66C38.71 32.62 41.6733 35.4667 43.68 39.2C45.6867 42.8867 46.69 47.25 46.69 52.29ZM20.3 71.26C26.74 71.26 31.6633 69.6033 35.07 66.29C38.4767 62.9767 40.18 58.31 40.18 52.29C40.18 46.27 38.4767 41.6033 35.07 38.29C31.71 34.93 26.7867 33.25 20.3 33.25H11.48V71.26H20.3ZM61.6558 32.83V49.7H80.4158V54.6H61.6558V71.82H82.5158V77H55.2858V27.65H82.5158V32.83H61.6558ZM93.9159 27.65L108.966 69.93L124.226 27.65H131.156L113.026 77H104.976L86.9159 27.65H93.9159Z" fill="url(#paint0_linear)"/>
<path d="M158.74 27.02C165.04 27.02 170.243 28.6767 174.35 31.99C178.503 35.3033 181.187 39.7833 182.4 45.43H169.73C168.797 43.1433 167.35 41.3467 165.39 40.04C163.477 38.7333 161.19 38.08 158.53 38.08C155.03 38.08 152.207 39.3633 150.06 41.93C147.913 44.4967 146.84 47.9267 146.84 52.22C146.84 56.5133 147.913 59.9433 150.06 62.51C152.207 65.03 155.03 66.29 158.53 66.29C161.19 66.29 163.477 65.6367 165.39 64.33C167.35 63.0233 168.797 61.25 169.73 59.01H182.4C181.187 64.61 178.503 69.09 174.35 72.45C170.243 75.7633 165.04 77.42 158.74 77.42C153.933 77.42 149.71 76.37 146.07 74.27C142.43 72.1233 139.607 69.1367 137.6 65.31C135.64 61.4833 134.66 57.12 134.66 52.22C134.66 47.32 135.64 42.9567 137.6 39.13C139.607 35.3033 142.43 32.34 146.07 30.24C149.71 28.0933 153.933 27.02 158.74 27.02ZM212.629 26.74C217.295 26.74 221.519 27.8367 225.299 30.03C229.125 32.1767 232.135 35.1867 234.329 39.06C236.522 42.8867 237.619 47.2267 237.619 52.08C237.619 56.9333 236.499 61.2967 234.259 65.17C232.065 69.0433 229.055 72.0767 225.229 74.27C221.449 76.4167 217.249 77.49 212.629 77.49C208.009 77.49 203.785 76.4167 199.959 74.27C196.179 72.0767 193.169 69.0433 190.929 65.17C188.735 61.2967 187.639 56.9333 187.639 52.08C187.639 47.2267 188.735 42.8867 190.929 39.06C193.169 35.1867 196.179 32.1767 199.959 30.03C203.785 27.8367 208.009 26.74 212.629 26.74ZM212.629 37.87C208.709 37.87 205.582 39.1533 203.249 41.72C200.962 44.24 199.819 47.6933 199.819 52.08C199.819 56.42 200.962 59.8733 203.249 62.44C205.582 65.0067 208.709 66.29 212.629 66.29C216.502 66.29 219.605 65.0067 221.939 62.44C224.272 59.8733 225.439 56.42 225.439 52.08C225.439 47.74 224.272 44.2867 221.939 41.72C219.652 39.1533 216.549 37.87 212.629 37.87ZM288.303 77H276.333L256.313 46.62V77H244.343V27.51H256.313L276.333 58.17V27.51H288.303V77ZM340.529 77H328.559L308.539 46.62V77H296.569V27.51H308.539L328.559 58.17V27.51H340.529V77ZM360.766 37.03V47.39H377.496V56.42H360.766V67.41H379.596V77H348.796V27.51H379.596V37.03H360.766ZM409.004 27.02C415.304 27.02 420.507 28.6767 424.614 31.99C428.767 35.3033 431.45 39.7833 432.664 45.43H419.994C419.06 43.1433 417.614 41.3467 415.654 40.04C413.74 38.7333 411.454 38.08 408.794 38.08C405.294 38.08 402.47 39.3633 400.324 41.93C398.177 44.4967 397.104 47.9267 397.104 52.22C397.104 56.5133 398.177 59.9433 400.324 62.51C402.47 65.03 405.294 66.29 408.794 66.29C411.454 66.29 413.74 65.6367 415.654 64.33C417.614 63.0233 419.06 61.25 419.994 59.01H432.664C431.45 64.61 428.767 69.09 424.614 72.45C420.507 75.7633 415.304 77.42 409.004 77.42C404.197 77.42 399.974 76.37 396.334 74.27C392.694 72.1233 389.87 69.1367 387.864 65.31C385.904 61.4833 384.924 57.12 384.924 52.22C384.924 47.32 385.904 42.9567 387.864 39.13C389.87 35.3033 392.694 32.34 396.334 30.24C399.974 28.0933 404.197 27.02 409.004 27.02ZM474.932 27.51V37.03H461.492V77H449.452V37.03H436.152V27.51H474.932Z" fill="url(#paint1_linear)"/>
<defs>
<linearGradient id="paint0_linear" x1="0" y1="52.5" x2="133" y2="52.5" gradientUnits="userSpaceOnUse">
<stop stop-color="#DA22FF"/>
<stop offset="1" stop-color="#9733EE"/>
</linearGradient>
<linearGradient id="paint1_linear" x1="132" y1="52.5" x2="476" y2="52.5" gradientUnits="userSpaceOnUse">
<stop stop-color="#DA22FF"/>
<stop offset="1" stop-color="#9733EE"/>
</linearGradient>
</defs>
</svg>
