<svg width="429" height="435" viewBox="0 0 429 435" fill="none" xmlns="http://www.w3.org/2000/svg">
<path fill-rule="evenodd" clip-rule="evenodd" d="M378.096 357.336C338.198 404.819 278.374 435 211.5 435C126.96 435 53.6851 386.767 17.6929 316.319L59.1565 327.429C86.08 334.643 110.866 335.539 133.515 330.116C151.483 325.908 167.203 318.344 180.674 307.423C182.16 311.104 183.802 314.7 185.6 318.21C196.207 338.437 211.13 354.223 230.37 365.57C249.61 376.67 271.933 382.22 297.34 382.22C329.75 382.22 356.668 373.925 378.096 357.336ZM418.352 284.91H355.43C350.497 296.75 342.85 306.123 332.49 313.03C322.377 319.937 310.29 323.39 296.23 323.39C277.73 323.39 262.807 316.73 251.46 303.41C240.113 289.843 234.44 271.713 234.44 249.02C234.44 226.327 240.113 208.197 251.46 194.63C262.807 181.063 277.73 174.28 296.23 174.28C310.29 174.28 322.377 177.733 332.49 184.64C342.85 191.547 350.497 201.043 355.43 213.13H422.4C415.987 183.283 401.803 159.603 379.85 142.09C358.143 124.577 330.64 115.82 297.34 115.82C271.933 115.82 249.61 121.493 230.37 132.84C225.851 135.447 221.571 138.306 217.528 141.416C211.502 129.605 203.343 118.914 193.054 109.343C176.087 93.5604 154.023 82.0303 126.861 74.7523L63.7872 57.8517C102.576 21.9455 154.475 0 211.5 0C331.622 0 429 97.3781 429 217.5C429 241.03 425.264 263.687 418.352 284.91ZM0.105347 166.115L2.80494 156.04C1.82704 159.366 0.926479 162.725 0.105347 166.115ZM68.4473 271.311C92.2735 277.695 112.431 276.329 128.919 267.213C145.645 258.16 157.072 242.197 163.201 219.324C169.33 196.451 167.415 176.913 157.456 160.71C147.735 144.571 130.962 133.309 107.136 126.925L78.1868 119.168L39.4985 263.554L68.4473 271.311Z" fill="url(#paint0_linear)"/>
<defs>
<linearGradient id="paint0_linear" x1="-21.5222" y1="217.5" x2="429" y2="217.5" gradientUnits="userSpaceOnUse">
<stop stop-color="#DA22FF"/>
<stop offset="1" stop-color="#9733EE"/>
</linearGradient>
</defs>
</svg>
